<svg xmlns="http://www.w3.org/2000/svg" viewBox="0 0 1080 1080"><defs><style>.cls-1,.cls-2{fill:none;stroke:#000;stroke-miterlimit:10;stroke-width:24px;}.cls-2{stroke-linecap:round;}</style></defs><g id="Layer_2" data-name="Layer 2"><circle class="cls-1" cx="550.58" cy="285.09" r="138"/><path class="cls-1" d="M502.56,231.2c-14.2,11.31-27,25.87-30.77,43.63-4.89,22.8,6.32,46.84,23.63,62.49s39.84,24.16,62.33,30.33c19.62,5.38,40,9.26,60.26,7s40.4-11.24,52.52-27.58c14.2-19.13,20.89-108.36-15.48-130.55C617.4,193.59,548.9,194.29,502.56,231.2Z"/><path class="cls-2" d="M579.56,236.8a56.35,56.35,0,0,1,69.17,56.88"/><path class="cls-2" d="M845.18,177.85l-2.76,68"/><path class="cls-2" d="M817.65,208.35a133.22,133.22,0,0,1,56.13-3.64"/><path class="cls-2" d="M229.24,408.57l1.67,60.67"/><path class="cls-2" d="M197.13,439.36l62.47,4.09"/><path class="cls-2" d="M516.73,475.46c-11.41-18.43-16.79-40.79-14-62.37"/><path class="cls-2" d="M527.31,489.47q-1.66-1.82-3.22-3.71"/><path class="cls-2" d="M526,552.22c10.72,1.1,22.73,2.58,32.45-3.2,9-5.33,12.58-15.31,7.9-24.85"/><path class="cls-2" d="M444.59,515.23C460,538,488,550,515.35,551.14"/><path class="cls-2" d="M429.46,367.16c-5.77,33.88-12,69.16-4.62,103.31a119.62,119.62,0,0,0,9.56,27.65"/><path class="cls-2" d="M611.39,418.71c36.77,12.13,79.1,6,110.88-16.16s52.28-59.67,53.68-98.37c.34-9.41-.49-19.23-5.15-27.42s-13.95-14.31-23.25-12.83c-14.22,2.24-20.34,18.84-24.41,32.65s-12.41,30.13-26.8,29.65"/><path class="cls-2" d="M654.91,436.14c2.53,18.69,3.83,37.87,5,57"/><path class="cls-2" d="M395.93,289.94c-3-19.62-37.63,14.25-46.16,32.18s-9.53,38.42-9.44,58.27a625.86,625.86,0,0,0,19.23,151.08c3.28,12.94,7.19,26.18,15.7,36.46s22.82,16.89,34.21,6.24C434.33,503.21,413.35,402.41,395.93,289.94Z"/><path class="cls-2" d="M611.39,622c-206,0-373-28.65-373-64"/><path class="cls-2" d="M984.39,558c0,35.35-167,64-373,64"/><path class="cls-2" d="M668.7,489.47C752,494.26,877,505,956,534c11,4,27,10,28.39,24"/><path class="cls-2" d="M660.52,486a989.61,989.61,0,0,0,4.09,131.79"/><path class="cls-2" d="M570.83,577.41l4.81,34.9"/><path class="cls-2" d="M438,516.67l6.25,99.87"/><path class="cls-2" d="M522.42,485.68a180.24,180.24,0,0,1,41.19,45.62"/><path class="cls-2" d="M670.72,521.39a1610.87,1610.87,0,0,1,218.37,24.46c25.71,4.67,52.59,10.59,72.23,27.84"/><path class="cls-2" d="M664.71,557a687.34,687.34,0,0,1,257.95,31.19"/><path class="cls-2" d="M665.86,586.06a717.5,717.5,0,0,1,186.77,15.19"/><path class="cls-2" d="M344.12,486.92a178,178,0,0,0-96.75,54.59c-4,4.4-7.91,9.27-9.05,15.11s1.43,12.81,7,14.76"/><path class="cls-2" d="M264.59,579.38c.94-16.35,14.56-28.94,28.2-38A214.05,214.05,0,0,1,348.3,515"/><path class="cls-2" d="M294.37,588.6a97.12,97.12,0,0,1,64.82-44.33"/><path class="cls-2" d="M328,598.76a77,77,0,0,1,40.41-30.63"/><path class="cls-2" d="M364.58,605.32a148.53,148.53,0,0,1,65.21-29.05"/><path class="cls-2" d="M410.44,609.79a38,38,0,0,1,23-7.45"/></g></svg>