<svg xmlns="http://www.w3.org/2000/svg" viewBox="0 0 1080 1080" id="car"><defs><style>.cls-1,.cls-2{fill:none;stroke:#000;stroke-miterlimit:10;stroke-width:24px;}.cls-2{stroke-linecap:round;}</style></defs><g id="Layer_4" data-name="Layer 4"><circle class="cls-1" cx="321.53" cy="609.89" r="69.89"/><circle class="cls-1" cx="767.53" cy="609.89" r="69.89"/><path class="cls-1" d="M243.67,618.51c-41.31,8.06-54.11-27.1-54.71-35.88C177.6,415.18,323.58,311.77,464.42,311.77c195.55,0,233.22,120.12,233.22,120.12,127,0,200,52.38,200,121.94,0,0,14.11,77.09-50.65,68.7"/><path class="cls-1" d="M390.2,622.9c97.74,0,211.66.07,310.11,6.17"/><path class="cls-1" d="M422.55,350.94c34.31,1.75,23.83,89.73,18.18,94.88-13.75,12.55-143.46-1.07-148.24-6.34C286.12,432.46,317.46,345.6,422.55,350.94Z"/><path class="cls-1" d="M498.92,343.34c-25.23,0-18,97.32-11.39,102.48,7.78,6,141.58,2.53,176.74-3.33C672.51,441.12,611,343.34,498.92,343.34Z"/><path class="cls-2" d="M491.91,501.14l49.85.11"/></g></svg>