<svg xmlns="http://www.w3.org/2000/svg" viewBox="0 0 1080 1080" id="eye"><defs>
<style>.cls-1,.cls-2,.cls-4{stroke:#000;stroke-miterlimit:10;}.cls-1{stroke-linecap:round;stroke-width:44px;}.cls-2,.cls-3{fill:#fff;}.cls-2,.cls-4{stroke-width:39px;}
#Layer_7:hover{
opacity:0;
}
@media screen 
  and (min-device-width: 320px) 
  and (max-device-width: 580px)
  and (-webkit-min-device-pixel-ratio: 2) {
  #Layer_7{
    opacity:0;
  }
}
</style></defs><g id="Layer_5" data-name="Layer 5"><path class="cls-1" d="M844.27,435q41.64-21.36,82.4-44.33"/><path class="cls-1" d="M757.88,370a889.87,889.87,0,0,1,56.91-68.68"/><path class="cls-1" d="M655.05,318.36a738.41,738.41,0,0,1,29.39-82.05"/><path class="cls-1" d="M538.49,306.47a712.28,712.28,0,0,1-2.11-90.29"/><path class="cls-1" d="M258,302.78a798.67,798.67,0,0,1,57.51,66.84"/><path class="cls-1" d="M144.89,392.45c26.69,18.14,58.24,27.49,87.18,41.76"/><path class="cls-1" d="M381.89,232.53q15.56,41.88,33.48,82.83"/><path class="cls-2" d="M266.63,497.44s118-114,271-114,277,114,277,114-124,114-277,114S266.63,497.44,266.63,497.44Z"/>
<g id="Layer_4" data-name="Layer 4"><ellipse cx="540.63" cy="471.44" rx="95.5" ry="95"/><ellipse class="cls-3" cx="569.6" cy="440.93" rx="30.5" ry="32" transform="translate(85.98 974.75) rotate(-85.57)"/></g><path class="cls-1" d="M232.13,564.18q-41.62,21.36-82.39,44.33"/><path class="cls-1" d="M318.52,629.15a889.35,889.35,0,0,1-56.9,68.68"/><path class="cls-1" d="M421.36,680.79A739.13,739.13,0,0,1,392,762.84"/><path class="cls-1" d="M537.92,692.67A714.18,714.18,0,0,1,540,783"/><path class="cls-1" d="M818.44,696.36a798.53,798.53,0,0,1-57.51-66.83"/><path class="cls-1" d="M931.52,606.7c-26.69-18.14-58.25-27.49-87.19-41.77"/><path class="cls-1" d="M694.52,766.61Q679,724.73,661,683.78"/></g>
<g id="Layer_7" data-name="Layer 7"><g id="Layer_10" data-name="Layer 10"><path class="cls-4" d="M269,497.44s118-114,271-114,277,114,277,114-124,114-277,114S269,497.44,269,497.44Z"/></g></g></svg>