<svg xmlns="http://www.w3.org/2000/svg" viewBox="0 0 1080 1080" id="foot"><defs><style>.cls-1{opacity:0.41;}.cls-2{fill:none;stroke:#000;stroke-linecap:round;stroke-miterlimit:10;stroke-width:24px;}</style></defs><g id="Layer_8" data-name="Layer 8"><g class="cls-1"><path class="cls-2" d="M638.56,431.59c-20.29,32.39-16.31,77,6.17,107.88,24.13,33.18,65.84,51.3,86.53,86.73C747.78,654.48,748.11,689,748,721.77L747.66,813c0,7.21-.37,15.22-5.44,20.35-3.07,3.11-7.42,4.61-10.83,7.33s-5.82,7.87-3.24,11.4c2.17,3,6.52,3.09,10.22,2.89L882.6,847.2c6.35-.34,14.42-2.12,15.43-8.4.81-5-3.75-9.18-8-11.91a98.62,98.62,0,0,0-49.59-15.37c-8.59-.28-18.07.3-24.73-5.12-7.58-6.16-8.2-17.3-8.2-27.06q0-43.43,0-86.84c0-36.52-1.13-76.31-24.42-104.44-10.83-13.08-25.49-22.29-38.41-33.32s-24.72-25.2-26.35-42.1c-.93-9.75,1.62-19.47,4.16-28.93q17.5-65.41,35-130.83"/><path class="cls-2" d="M709.58,323h0a21.21,21.21,0,0,0-28.74-1.87C631.91,360.78,583.69,404.31,562.17,463c-5.42,14.78-9.88,31.45-22.87,40.34-11.86,8.11-27.4,7.28-41.53,9.87S468,525.58,469,539.91c.71,10.19,10.28,18.07,20.32,19.94s20.34-1,29.92-4.52c63.89-23.63,84.14-64.72,119.35-123.74"/><path class="cls-2" d="M628,502.51c-.91,40.18-16.9,79.06-40.36,111.7s-60.16,81.47-92.63,105.17q-27.26,19.9-56.39,37.07c-6.1,3.59-13.19,9-11.69,16,.67,3.07,3,5.48,5.16,7.72l46,46.85c7.28,7.42,14.76,15,24.13,19.48,17.67,8.48,38.5,4.62,57.68.59,4.54-1,10.34-3.75,9.24-8.26-.67-2.73-3.64-4.09-6.23-5.18a114.81,114.81,0,0,1-29.49-18c-6.16-5.18-12.24-12.42-10.73-20.32,1-5.34,5.25-9.38,9.26-13l64.19-58.47c19.33-17.62,39-35.65,51.73-58.5,14.92-26.8,19.12-58.05,23.05-88.47"/><path class="cls-2" d="M749,402.42c1.63,11.1,35.71,48,46.83,49.46,109.27,14,64.52,8,92.38,10.93,11.25,1.19,23.14,3.73,31.1,11.77,6.37,6.43,9.26,15.41,13.58,23.36s11.5,15.65,20.55,15.66c13.14,0,20.52-15.73,20.42-28.87-.26-32.92-26.6-61-56.83-74s-64-14.24-96.86-16.2c-8.53-.51-17.59-1.28-24.42-6.4-12.12-9.09-14.29-29.63-28.83-33.85"/><path class="cls-2" d="M704.05,316.36c7.05,11,26.92,19.07,38.54,25.1s26.21,7.36,37.74,1.14,18.6-20.85,14.14-33.16c-3-8.41-10.8-15.26-10.92-24.2-.11-8.53,6.85-15.49,8.89-23.77,2.45-9.92-2.77-20.61-10.85-26.85s-18.51-8.69-28.69-9.42c-12.38-.89-25.72.84-35.23,8.81-10.57,8.87-.54,29.9.91,43.62S695.28,302.64,704.05,316.36Z"/><path class="cls-2" d="M638.56,431.59c-20.29,32.39-16.31,77,6.17,107.88,24.13,33.18,65.84,51.3,86.53,86.73C747.78,654.48,748.11,689,748,721.77L747.66,813c0,7.21-.37,15.22-5.44,20.35-3.07,3.11-7.42,4.61-10.83,7.33s-5.82,7.87-3.24,11.4c2.17,3,6.52,3.09,10.22,2.89L882.6,847.2c6.35-.34,14.42-2.12,15.43-8.4.81-5-3.75-9.18-8-11.91a98.62,98.62,0,0,0-49.59-15.37c-8.59-.28-18.07.3-24.73-5.12-7.58-6.16-8.2-17.3-8.2-27.06q0-43.43,0-86.84c0-36.52-1.13-76.31-24.42-104.44-10.83-13.08-25.49-22.29-38.41-33.32s-24.72-25.2-26.35-42.1c-.93-9.75,1.62-19.47,4.16-28.93q17.5-65.41,35-130.83"/><path class="cls-2" d="M709.58,323h0a21.21,21.21,0,0,0-28.74-1.87C631.91,360.78,583.69,404.31,562.17,463c-5.42,14.78-9.88,31.45-22.87,40.34-11.86,8.11-27.4,7.28-41.53,9.87S468,525.58,469,539.91c.71,10.19,10.28,18.07,20.32,19.94s20.34-1,29.92-4.52c63.89-23.63,84.14-64.72,119.35-123.74"/><path class="cls-2" d="M628,502.51c-.91,40.18-16.9,79.06-40.36,111.7s-60.16,81.47-92.63,105.17q-27.26,19.9-56.39,37.07c-6.1,3.59-13.19,9-11.69,16,.67,3.07,3,5.48,5.16,7.72l46,46.85c7.28,7.42,14.76,15,24.13,19.48,17.67,8.48,38.5,4.62,57.68.59,4.54-1,10.34-3.75,9.24-8.26-.67-2.73-3.64-4.09-6.23-5.18a114.81,114.81,0,0,1-29.49-18c-6.16-5.18-12.24-12.42-10.73-20.32,1-5.34,5.25-9.38,9.26-13l64.19-58.47c19.33-17.62,39-35.65,51.73-58.5,14.92-26.8,19.12-58.05,23.05-88.47"/><path class="cls-2" d="M749,402.42c1.63,11.1,35.71,48,46.83,49.46,109.27,14,64.52,8,92.38,10.93,11.25,1.19,23.14,3.73,31.1,11.77,6.37,6.43,9.26,15.41,13.58,23.36s11.5,15.65,20.55,15.66c13.14,0,20.52-15.73,20.42-28.87-.26-32.92-26.6-61-56.83-74s-64-14.24-96.86-16.2c-8.53-.51-17.59-1.28-24.42-6.4-12.12-9.09-14.29-29.63-28.83-33.85"/><path class="cls-2" d="M704.05,316.36c7.05,11,26.92,19.07,38.54,25.1s26.21,7.36,37.74,1.14,18.6-20.85,14.14-33.16c-3-8.41-10.8-15.26-10.92-24.2-.11-8.53,6.85-15.49,8.89-23.77,2.45-9.92-2.77-20.61-10.85-26.85s-18.51-8.69-28.69-9.42c-12.38-.89-25.72.84-35.23,8.81-10.57,8.87-.54,29.9.91,43.62S695.28,302.64,704.05,316.36Z"/></g><g class="cls-1"><path class="cls-2" d="M419.47,418.74c-20.3,32.39-16.31,76.95,6.17,107.88,24.12,33.18,65.84,51.3,86.53,86.73,16.51,28.28,16.85,62.82,16.73,95.57l-.34,91.21c0,7.21-.36,15.22-5.43,20.35-3.08,3.11-7.42,4.61-10.84,7.33s-5.81,7.87-3.24,11.4c2.18,3,6.53,3.09,10.22,2.89l144.23-7.74c6.36-.35,14.43-2.13,15.44-8.41.8-5-3.75-9.18-8-11.91a98.62,98.62,0,0,0-49.6-15.37c-8.58-.28-18.06.3-24.72-5.12-7.58-6.16-8.2-17.3-8.2-27.06q0-43.43,0-86.84c0-36.52-1.13-76.31-24.42-104.44-10.83-13.08-25.5-22.29-38.41-33.31s-24.72-25.21-26.35-42.11c-.94-9.75,1.62-19.47,4.16-28.93q17.5-65.42,35-130.83"/><path class="cls-2" d="M490.49,310.12h0a21.21,21.21,0,0,0-28.74-1.87c-48.94,39.68-97.15,83.21-118.67,141.86-5.43,14.78-9.88,31.45-22.87,40.34-11.86,8.11-27.4,7.28-41.54,9.87s-29.8,12.41-28.79,26.74c.71,10.19,10.27,18.07,20.31,19.94s20.35-1,29.93-4.52c63.89-23.63,84.13-64.71,119.35-123.74"/><path class="cls-2" d="M409,489.66c-.91,40.18-16.9,79.06-40.36,111.7S308.42,682.83,276,706.53q-27.27,19.9-56.39,37.07c-6.1,3.59-13.19,9-11.69,16,.67,3.07,3,5.48,5.16,7.72l46,46.85c7.28,7.42,14.76,15,24.13,19.48,17.67,8.48,38.5,4.62,57.68.59,4.54-1,10.34-3.75,9.24-8.26-.67-2.73-3.64-4.09-6.24-5.18a114.76,114.76,0,0,1-29.48-18c-6.16-5.18-12.24-12.42-10.73-20.32,1-5.33,5.25-9.37,9.26-13L377.08,711c19.33-17.62,39-35.65,51.73-58.5,14.93-26.79,19.13-58.05,23.06-88.47"/><path class="cls-2" d="M529.9,389.57c1.63,11.1,35.71,48,46.83,49.46C686,453,641.25,447,669.1,450c11.25,1.19,23.15,3.73,31.11,11.77,6.36,6.43,9.25,15.41,13.58,23.36s11.49,15.65,20.54,15.66c13.15,0,20.53-15.73,20.43-28.87-.26-32.92-26.6-61-56.83-74s-64-14.24-96.87-16.2c-8.52-.51-17.58-1.28-24.41-6.4-12.12-9.09-14.29-29.63-28.84-33.85"/><path class="cls-2" d="M485,303.52c7.05,11,26.91,19.06,38.54,25.09s26.21,7.36,37.73,1.14,18.61-20.85,14.15-33.16c-3-8.41-10.81-15.26-10.92-24.2-.11-8.53,6.84-15.49,8.89-23.77,2.44-9.92-2.77-20.61-10.85-26.85s-18.51-8.69-28.7-9.42c-12.38-.89-25.71.84-35.22,8.81-10.57,8.87-.54,29.9.91,43.62S476.19,289.79,485,303.52Z"/><path class="cls-2" d="M419.47,418.74c-20.3,32.39-16.31,76.95,6.17,107.88,24.12,33.18,65.84,51.3,86.53,86.73,16.51,28.28,16.85,62.82,16.73,95.57l-.34,91.21c0,7.21-.36,15.22-5.43,20.35-3.08,3.11-7.42,4.61-10.84,7.33s-5.81,7.87-3.24,11.4c2.18,3,6.53,3.09,10.22,2.89l144.23-7.74c6.36-.35,14.43-2.13,15.44-8.41.8-5-3.75-9.18-8-11.91a98.62,98.62,0,0,0-49.6-15.37c-8.58-.28-18.06.3-24.72-5.12-7.58-6.16-8.2-17.3-8.2-27.06q0-43.43,0-86.84c0-36.52-1.13-76.31-24.42-104.44-10.83-13.08-25.5-22.29-38.41-33.31s-24.72-25.21-26.35-42.11c-.94-9.75,1.62-19.47,4.16-28.93q17.5-65.42,35-130.83"/><path class="cls-2" d="M490.49,310.12h0a21.21,21.21,0,0,0-28.74-1.87c-48.94,39.68-97.15,83.21-118.67,141.86-5.43,14.78-9.88,31.45-22.87,40.34-11.86,8.11-27.4,7.28-41.54,9.87s-29.8,12.41-28.79,26.74c.71,10.19,10.27,18.07,20.31,19.94s20.35-1,29.93-4.52c63.89-23.63,84.13-64.71,119.35-123.74"/><path class="cls-2" d="M409,489.66c-.91,40.18-16.9,79.06-40.36,111.7S308.42,682.83,276,706.53q-27.27,19.9-56.39,37.07c-6.1,3.59-13.19,9-11.69,16,.67,3.07,3,5.48,5.16,7.72l46,46.85c7.28,7.42,14.76,15,24.13,19.48,17.67,8.48,38.5,4.62,57.68.59,4.54-1,10.34-3.75,9.24-8.26-.67-2.73-3.64-4.09-6.24-5.18a114.76,114.76,0,0,1-29.48-18c-6.16-5.18-12.24-12.42-10.73-20.32,1-5.33,5.25-9.37,9.26-13L377.08,711c19.33-17.62,39-35.65,51.73-58.5,14.93-26.79,19.13-58.05,23.06-88.47"/><path class="cls-2" d="M529.9,389.57c1.63,11.1,35.71,48,46.83,49.46C686,453,641.25,447,669.1,450c11.25,1.19,23.15,3.73,31.11,11.77,6.36,6.43,9.25,15.41,13.58,23.36s11.49,15.65,20.54,15.66c13.15,0,20.53-15.73,20.43-28.87-.26-32.92-26.6-61-56.83-74s-64-14.24-96.87-16.2c-8.52-.51-17.58-1.28-24.41-6.4-12.12-9.09-14.29-29.63-28.84-33.85"/><path class="cls-2" d="M485,303.52c7.05,11,26.91,19.06,38.54,25.09s26.21,7.36,37.73,1.14,18.61-20.85,14.15-33.16c-3-8.41-10.81-15.26-10.92-24.2-.11-8.53,6.84-15.49,8.89-23.77,2.44-9.92-2.77-20.61-10.85-26.85s-18.51-8.69-28.7-9.42c-12.38-.89-25.71.84-35.22,8.81-10.57,8.87-.54,29.9.91,43.62S476.19,289.79,485,303.52Z"/></g><path class="cls-2" d="M550.52,418.74c-20.29,32.39-16.31,76.95,6.17,107.88,24.13,33.18,65.84,51.3,86.53,86.73,16.52,28.28,16.85,62.82,16.73,95.57l-.33,91.21c0,7.21-.37,15.22-5.44,20.35-3.07,3.11-7.42,4.61-10.83,7.33s-5.82,7.87-3.24,11.4c2.18,3,6.52,3.09,10.22,2.89l144.23-7.74C800.91,834,809,832.23,810,826c.81-5-3.75-9.18-8-11.91a98.62,98.62,0,0,0-49.59-15.37c-8.58-.28-18.07.3-24.73-5.12-7.58-6.16-8.2-17.3-8.2-27.06q0-43.43,0-86.84c0-36.52-1.13-76.31-24.42-104.44-10.83-13.08-25.5-22.29-38.42-33.31s-24.72-25.21-26.34-42.11c-.94-9.75,1.62-19.47,4.15-28.93q17.52-65.42,35-130.83"/><path class="cls-2" d="M621.54,310.12h0a21.21,21.21,0,0,0-28.74-1.87c-48.93,39.68-97.15,83.21-118.67,141.86-5.42,14.78-9.88,31.45-22.87,40.34-11.86,8.11-27.4,7.28-41.53,9.87s-29.8,12.41-28.8,26.74c.71,10.19,10.28,18.07,20.32,19.94s20.34-1,29.92-4.52c63.89-23.63,84.14-64.71,119.35-123.74"/><path class="cls-2" d="M540,489.66c-.91,40.18-16.9,79.06-40.36,111.7S439.48,682.83,407,706.53q-27.25,19.9-56.38,37.07c-6.1,3.59-13.2,9-11.69,16,.66,3.07,3,5.48,5.16,7.72l46,46.85c7.28,7.42,14.76,15,24.13,19.48,17.67,8.48,38.5,4.62,57.68.59,4.54-1,10.34-3.75,9.24-8.26-.67-2.73-3.64-4.09-6.23-5.18a115,115,0,0,1-29.49-18c-6.15-5.18-12.23-12.42-10.73-20.32,1-5.33,5.25-9.37,9.26-13L508.14,711c19.33-17.62,39-35.65,51.73-58.5,14.92-26.79,19.12-58.05,23-88.47"/><path class="cls-2" d="M661,389.57c1.62,11.1,35.7,48,46.82,49.46,109.27,14,64.53,8,92.38,10.93,11.25,1.19,23.14,3.73,31.1,11.77,6.37,6.43,9.26,15.41,13.59,23.36s11.49,15.65,20.54,15.66c13.14,0,20.52-15.73,20.42-28.87-.26-32.92-26.6-61-56.83-74s-64-14.24-96.86-16.2c-8.53-.51-17.59-1.28-24.42-6.4-12.11-9.09-14.29-29.63-28.83-33.85"/><path class="cls-2" d="M616,303.52c7,11,26.92,19.06,38.54,25.09s26.21,7.36,37.74,1.14,18.6-20.85,14.15-33.16c-3.05-8.41-10.81-15.26-10.93-24.2-.11-8.53,6.85-15.49,8.89-23.77,2.45-9.92-2.77-20.61-10.85-26.85s-18.5-8.69-28.69-9.42c-12.38-.89-25.72.84-35.23,8.81-10.56,8.87-.53,29.9.91,43.62S607.24,289.79,616,303.52Z"/><path class="cls-2" d="M550.52,418.74c-20.29,32.39-16.31,76.95,6.17,107.88,24.13,33.18,65.84,51.3,86.53,86.73,16.52,28.28,16.85,62.82,16.73,95.57l-.33,91.21c0,7.21-.37,15.22-5.44,20.35-3.07,3.11-7.42,4.61-10.83,7.33s-5.82,7.87-3.24,11.4c2.18,3,6.52,3.09,10.22,2.89l144.23-7.74C800.91,834,809,832.23,810,826c.81-5-3.75-9.18-8-11.91a98.62,98.62,0,0,0-49.59-15.37c-8.58-.28-18.07.3-24.73-5.12-7.58-6.16-8.2-17.3-8.2-27.06q0-43.43,0-86.84c0-36.52-1.13-76.31-24.42-104.44-10.83-13.08-25.5-22.29-38.42-33.31s-24.72-25.21-26.34-42.11c-.94-9.75,1.62-19.47,4.15-28.93q17.52-65.42,35-130.83"/><path class="cls-2" d="M621.54,310.12h0a21.21,21.21,0,0,0-28.74-1.87c-48.93,39.68-97.15,83.21-118.67,141.86-5.42,14.78-9.88,31.45-22.87,40.34-11.86,8.11-27.4,7.28-41.53,9.87s-29.8,12.41-28.8,26.74c.71,10.19,10.28,18.07,20.32,19.94s20.34-1,29.92-4.52c63.89-23.63,84.14-64.71,119.35-123.74"/><path class="cls-2" d="M540,489.66c-.91,40.18-16.9,79.06-40.36,111.7S439.48,682.83,407,706.53q-27.25,19.9-56.38,37.07c-6.1,3.59-13.2,9-11.69,16,.66,3.07,3,5.48,5.16,7.72l46,46.85c7.28,7.42,14.76,15,24.13,19.48,17.67,8.48,38.5,4.62,57.68.59,4.54-1,10.34-3.75,9.24-8.26-.67-2.73-3.64-4.09-6.23-5.18a115,115,0,0,1-29.49-18c-6.15-5.18-12.23-12.42-10.73-20.32,1-5.33,5.25-9.37,9.26-13L508.14,711c19.33-17.62,39-35.65,51.73-58.5,14.92-26.79,19.12-58.05,23-88.47"/><path class="cls-2" d="M661,389.57c1.62,11.1,35.7,48,46.82,49.46,109.27,14,64.53,8,92.38,10.93,11.25,1.19,23.14,3.73,31.1,11.77,6.37,6.43,9.26,15.41,13.59,23.36s11.49,15.65,20.54,15.66c13.14,0,20.52-15.73,20.42-28.87-.26-32.92-26.6-61-56.83-74s-64-14.24-96.86-16.2c-8.53-.51-17.59-1.28-24.42-6.4-12.11-9.09-14.29-29.63-28.83-33.85"/><path class="cls-2" d="M616,303.52c7,11,26.92,19.06,38.54,25.09s26.21,7.36,37.74,1.14,18.6-20.85,14.15-33.16c-3.05-8.41-10.81-15.26-10.93-24.2-.11-8.53,6.85-15.49,8.89-23.77,2.45-9.92-2.77-20.61-10.85-26.85s-18.5-8.69-28.69-9.42c-12.38-.89-25.72.84-35.23,8.81-10.56,8.87-.53,29.9.91,43.62S607.24,289.79,616,303.52Z"/></g></svg>