<svg xmlns="http://www.w3.org/2000/svg" viewBox="0 0 1080 1080" id="make"><defs><style>.cls-1,.cls-2{fill:none;stroke:#000;stroke-miterlimit:10;stroke-width:24px;}.cls-2{stroke-linecap:round;}</style></defs><g id="Layer_5" data-name="Layer 5"><path class="cls-1" d="M449.57,540c1.33-25,0-87.38,5-88.73,8.32-2.22,145.45-5.39,217.94-5.39,14,0,13.29,88.52,7.35,88.52"/><path class="cls-1" d="M480.5,445.88q-4.61-70.9-4.65-142c0-30.85,1.36-64,19.94-88.64,17.75-23.51,47.36-34.15,75.26-43.59,13.37-4.53,27.06-9.11,41.18-8.95s29,6,36.32,18c6.21,10.2,6.11,22.87,5.82,34.8q-2.75,112.89-5.48,225.76"/><path class="cls-2" d="M513,275.69a138.28,138.28,0,0,0,97.29-43.41"/><path class="cls-2" d="M425.7,540c129.09,0,277.18-10.92,277.18-2.25,0,117.08-2.28,344.6-1.5,365.35,1,25.79-277,25-277,4.42C424.4,848.61,416.36,540,425.7,540Z"/></g></svg>