<svg xmlns="http://www.w3.org/2000/svg" viewBox="0 0 1080 1080"><defs><style>.cls-1{fill:none;stroke:#000;stroke-linecap:round;stroke-miterlimit:10;stroke-width:24px;}</style></defs><g id="Layer_3" data-name="Layer 3"><path class="cls-1" d="M368.77,543.08c32.26,5,65.7,10,97.15,1.25,22.86-6.38,43.12-19.64,65-28.89s47.6-14.25,68.89-3.75c30.75,15.15,39.05,54.28,58.49,82.52,14,20.28,35.1,36.72,41.29,60.56,7.84,30.2-12.51,62.08-39.67,77.42S600.39,750,569.22,751.42q-86.3,3.83-172.68-.17c-26.26-1.21-53.05-3.1-77.3-13.21s-45.92-30-48.11-66.66c-25.4-80.53-2.72-174.29,56.69-234.29,11.21-11.32,24.39-21.87,40.1-24.47,30.17-5,59,20.52,89.28,16.05,9.54-1.41,18.6-5.78,28.23-5.92,18.49-.28,33.45,14.68,44.17,29.75s20.54,32.19,37.16,40.3"/><path class="cls-1" d="M496,590.92l-22.82,50.83"/><path class="cls-1" d="M494.13,663.63,529.48,590"/><path class="cls-1" d="M527.9,666.52l24.89-53.93"/></g></svg>