<svg xmlns="http://www.w3.org/2000/svg" viewBox="0 0 1080 1080"><defs><style>.cls-1{fill:none;stroke:#000;stroke-linecap:round;stroke-miterlimit:10;stroke-width:24px;}</style></defs><g id="Layer_7" data-name="Layer 7"><path class="cls-1" d="M598.21,508.58a.56.56,0,0,0,.54.42l76.56-1.26a.55.55,0,0,0,.48-.79"/><path class="cls-1" d="M436.38,510.86a.56.56,0,0,0,.55.68l154.33-3.8a.55.55,0,0,0,.52-.67"/><path class="cls-1" d="M351.07,504.41a.55.55,0,0,0,.47.79l76.57,2.51a.55.55,0,0,0,.55-.42"/><path class="cls-1" d="M678.35,511.07a.55.55,0,0,0-.5-.79H592.37a.54.54,0,0,0-.53.43l-84.08,338C507.62,849.33,678.35,511.07,678.35,511.07Z"/><path class="cls-1" d="M497.13,812.94c2.09,9.31,15.31,9.43,17.56.16,33.3-136.88,78.88-303,74.44-302.82l-152.75.58C436,510.87,497.13,812.94,497.13,812.94Z"/><path class="cls-1" d="M351,507.71,504.48,848.38a.55.55,0,0,0,1-.36s-68.38-336.49-68.58-336.48C436.93,511.54,350.84,507.36,351,507.71Z"/><path class="cls-1" d="M677.72,501.06a.55.55,0,0,1-.5.79H591.75a.56.56,0,0,1-.54-.43l-84.08-338C507,162.79,677.72,501.06,677.72,501.06Z"/><path class="cls-1" d="M496.5,199.18c2.1-9.3,15.31-9.42,17.57-.15,33.3,136.87,78.87,303,74.44,302.82l-152.75-.58C435.4,501.25,496.5,199.18,496.5,199.18Z"/><path class="cls-1" d="M350.39,504.41,503.86,163.74a.55.55,0,0,1,1,.36s-68.38,336.5-68.58,336.49C436.31,500.59,350.22,504.77,350.39,504.41Z"/><path class="cls-1" d="M238.66,183.2l63.69,80.41"/><path class="cls-1" d="M685.76,258.12,747,203.9"/><path class="cls-1" d="M673.14,715.72a629.05,629.05,0,0,0,87.94,68.33"/><path class="cls-1" d="M244,793.41,306.3,743.2"/><path class="cls-1" d="M748.1,498.2l57.24-6"/><path class="cls-1" d="M223,511.66l57.25-4.85"/><path class="cls-1" d="M515.52,909.4l1.28,51.18"/><path class="cls-1" d="M506.27,109.21,504.79,60"/></g></svg>