<svg id="Layer_6" data-name="Layer 6" xmlns="http://www.w3.org/2000/svg" viewBox="0 0 1080 1080"><defs><style>.cls-1,.cls-2{fill:none;stroke:#000;stroke-miterlimit:10;}.cls-1{stroke-width:24px;}.cls-2{stroke-width:20px;}</style></defs><path class="cls-1" d="M284.92,279.62C339,223,417,191,495.18,190.89"/><path class="cls-1" d="M205.38,437.63C213,394,228,352,254.79,316"/><path class="cls-1" d="M213.09,567.28c-6.31-21.23-9.6-43.26-10.92-65.34q-.57-9.54-.69-19.09"/><path class="cls-1" d="M277.28,681.78C257,661,241,636,228.87,610.17"/><path class="cls-1" d="M394.24,761.18A180.65,180.65,0,0,1,346,738c-2-1-5-2-7-3-10-7-19-13-27.92-20.36"/><path class="cls-1" d="M491.17,779.93A287.83,287.83,0,0,1,435,773.07"/><path class="cls-1" d="M495.18,190.89C613,187,726,265,771,374c19,48,22,99,17,150-4,38-17,72-35,106l-3,3c-16,30-39,54-64,77-1,1-3,1-4,2-8,8-17,13-26.4,20"/><polygon class="cls-1" points="626.49 690.82 585.33 773.13 667.65 773.13 626.49 690.82"/><circle class="cls-1" cx="484.38" cy="484.38" r="23.1"/><line class="cls-1" x1="507.48" y1="492.73" x2="624.91" y2="492.73"/><line class="cls-2" x1="484.38" y1="457.42" x2="484.38" y2="275.76"/></svg>